<svg viewBox="0 0 494 69" xmlns="http://www.w3.org/2000/svg">
<path d="M58.4 28.736L56.7271 27.6399L55.6398 29.2995L57.2906 30.4001L58.4 28.736ZM0.8 0.799995V-1.2H-1.2V0.799995H0.8ZM0.8 68H-1.2V70H0.8V68ZM12.8 12.8V10.8H10.8V12.8H12.8ZM12.8 25.088H10.8V27.088H12.8V25.088ZM46.592 56V58H48.592V56H46.592ZM12.8 56H10.8V58H12.8V56ZM12.8 37.088V35.088H10.8V37.088H12.8ZM46.592 55.904V53.904H44.592V55.904H46.592ZM60.0729 29.8321C62.1091 26.7242 63.28 22.9836 63.28 18.944H59.28C59.28 22.2004 58.3389 25.1798 56.7271 27.6399L60.0729 29.8321ZM63.28 18.944C63.28 7.85543 54.2246 -1.2 43.136 -1.2V2.8C52.0154 2.8 59.28 10.0646 59.28 18.944H63.28ZM43.136 -1.2H0.8V2.8H43.136V-1.2ZM-1.2 0.799995V68H2.8V0.799995H-1.2ZM0.8 70H46.592V66H0.8V70ZM46.592 70C59.5046 70 70 59.5046 70 46.592H66C66 57.2954 57.2954 66 46.592 66V70ZM70 46.592C70 38.3984 65.7944 31.2619 59.5094 27.0719L57.2906 30.4001C62.5257 33.8901 66 39.8096 66 46.592H70ZM12.8 14.8H43.232V10.8H12.8V14.8ZM43.232 14.8C45.4874 14.8 47.376 16.6886 47.376 18.944H51.376C51.376 14.4794 47.6966 10.8 43.232 10.8V14.8ZM47.376 18.944C47.376 21.1994 45.4874 23.088 43.232 23.088V27.088C47.6966 27.088 51.376 23.4086 51.376 18.944H47.376ZM43.232 23.088H12.8V27.088H43.232V23.088ZM14.8 25.088V12.8H10.8V25.088H14.8ZM46.592 54H12.8V58H46.592V54ZM14.8 56V37.088H10.8V56H14.8ZM12.8 39.088H46.592V35.088H12.8V39.088ZM46.592 39.088C50.6714 39.088 54 42.4166 54 46.496H58C58 40.2074 52.8806 35.088 46.592 35.088V39.088ZM54 46.496C54 50.5754 50.6714 53.904 46.592 53.904V57.904C52.8806 57.904 58 52.7846 58 46.496H54ZM44.592 55.904V56H48.592V55.904H44.592ZM133.798 56L132.016 56.908L132.017 56.9115L133.798 56ZM105.67 0.799995L107.451 -0.108042L105.67 -3.60511L103.888 -0.108042L105.67 0.799995ZM77.5415 56L79.3217 56.9115L79.3235 56.908L77.5415 56ZM71.3975 68L69.6173 67.0885L68.1266 70H71.3975V68ZM84.8375 68V70H86.0604L86.6177 68.9115L84.8375 68ZM90.9815 56L92.7617 56.9115L92.7632 56.9087L90.9815 56ZM105.67 27.2L107.451 26.2913L105.67 22.7979L103.888 26.2913L105.67 27.2ZM120.358 56L118.576 56.9087L118.577 56.9115L120.358 56ZM126.502 68L124.721 68.9115L125.279 70H126.502V68ZM139.942 68V70H143.212L141.722 67.0885L139.942 68ZM135.579 55.092L107.451 -0.108042L103.888 1.70803L132.016 56.908L135.579 55.092ZM103.888 -0.108042L75.7595 55.092L79.3235 56.908L107.451 1.70803L103.888 -0.108042ZM75.7613 55.0885L69.6173 67.0885L73.1777 68.9115L79.3217 56.9115L75.7613 55.0885ZM71.3975 70H84.8375V66H71.3975V70ZM86.6177 68.9115L92.7617 56.9115L89.2013 55.0885L83.0573 67.0885L86.6177 68.9115ZM92.7632 56.9087L107.451 28.1087L103.888 26.2913L89.1998 55.0913L92.7632 56.9087ZM103.888 28.1087L118.576 56.9087L122.139 55.0913L107.451 26.2913L103.888 28.1087ZM118.577 56.9115L124.721 68.9115L128.282 67.0885L122.138 55.0885L118.577 56.9115ZM126.502 70H139.942V66H126.502V70ZM141.722 67.0885L135.578 55.0885L132.017 56.9115L138.161 68.9115L141.722 67.0885ZM179.338 0.799995L180.752 2.21421L184.166 -1.2H179.338V0.799995ZM145.738 0.799995V-1.2H143.738V0.799995H145.738ZM145.738 68H143.738V70H145.738V68ZM202.954 58.112L201.539 56.6978L201.534 56.7034L201.528 56.709L202.954 58.112ZM204.874 56.096L206.392 57.3976L206.396 57.3935L204.874 56.096ZM179.242 0.895994L177.827 -0.518219L174.413 2.89599H179.242V0.895994ZM157.642 56.096H155.642V58.096H157.642V56.096ZM157.642 12.896V10.896H155.642V12.896H157.642ZM179.338 -1.2H145.738V2.8H179.338V-1.2ZM143.738 0.799995V68H147.738V0.799995H143.738ZM145.738 70H179.338V66H145.738V70ZM179.338 70C189.108 70 197.968 66.0276 204.379 59.515L201.528 56.709C195.843 62.4844 187.999 66 179.338 66V70ZM204.368 59.5262C205.028 58.8662 205.757 58.1386 206.392 57.3976L203.355 54.7944C202.838 55.3974 202.223 56.0138 201.539 56.6978L204.368 59.5262ZM206.396 57.3935C211.687 51.1859 214.842 43.1449 214.842 34.4H210.842C210.842 42.1671 208.044 49.2941 203.351 54.7985L206.396 57.3935ZM214.842 34.4C214.842 14.76 198.867 -1.10401 179.242 -1.10401V2.89599C196.672 2.89599 210.842 16.984 210.842 34.4H214.842ZM180.656 2.31021L180.752 2.21421L177.923 -0.614218L177.827 -0.518219L180.656 2.31021ZM179.242 54.096H157.642V58.096H179.242V54.096ZM159.642 56.096V12.896H155.642V56.096H159.642ZM157.642 14.896H179.242V10.896H157.642V14.896ZM179.242 14.896C190.041 14.896 198.842 23.6966 198.842 34.496H202.842C202.842 21.4874 192.25 10.896 179.242 10.896V14.896ZM198.842 34.496C198.842 45.2954 190.041 54.096 179.242 54.096V58.096C192.25 58.096 202.842 47.5046 202.842 34.496H198.842ZM288.759 12.8V14.8H290.759V12.8H288.759ZM288.759 0.799995H290.759V-1.2H288.759V0.799995ZM288.759 68V70H290.759V68H288.759ZM288.759 56H290.759V54H288.759V56ZM255.159 14.8H288.759V10.8H255.159V14.8ZM290.759 12.8V0.799995H286.759V12.8H290.759ZM288.759 -1.2H255.159V2.8H288.759V-1.2ZM255.159 -1.2C235.526 -1.2 219.559 14.7674 219.559 34.4H223.559C223.559 16.9766 237.735 2.8 255.159 2.8V-1.2ZM219.559 34.4C219.559 54.0326 235.526 70 255.159 70V66C237.735 66 223.559 51.8234 223.559 34.4H219.559ZM255.159 70H288.759V66H255.159V70ZM290.759 68V56H286.759V68H290.759ZM288.759 54H255.159V58H288.759V54ZM255.159 54C244.359 54 235.559 45.1994 235.559 34.4H231.559C231.559 47.4086 242.15 58 255.159 58V54ZM235.559 34.4C235.559 23.6006 244.359 14.8 255.159 14.8V10.8C242.15 10.8 231.559 21.3914 231.559 34.4H235.559ZM318.523 56L318.252 57.9817L318.384 57.9996L318.517 58L318.523 56ZM310.363 47.84H308.363V47.9757L308.381 48.1102L310.363 47.84ZM310.363 0.895994H312.363V-1.10401H310.363V0.895994ZM298.363 0.895994V-1.10401H296.363V0.895994H298.363ZM300.571 56.096L302.375 55.2345L302.368 55.218L302.359 55.2016L300.571 56.096ZM310.267 65.888L309.372 67.6769L310.267 65.888ZM353.755 68.096V70.096H355.755V68.096H353.755ZM353.755 56.096H355.755V54.1014L353.76 54.096L353.755 56.096ZM318.793 54.0183C315.459 53.5637 312.799 50.9037 312.344 47.5698L308.381 48.1102C309.078 53.2243 313.138 57.2843 318.252 57.9817L318.793 54.0183ZM312.363 47.84V0.895994H308.363V47.84H312.363ZM310.363 -1.10401H298.363V2.89599H310.363V-1.10401ZM296.363 0.895994V46.688H300.363V0.895994H296.363ZM296.363 46.688C296.363 50.36 297.203 53.834 298.782 56.9904L302.359 55.2016C301.058 52.598 300.363 49.736 300.363 46.688H296.363ZM298.766 56.9575C300.98 61.5973 304.764 65.3727 309.372 67.6769L311.161 64.0991C307.321 62.1793 304.193 59.0427 302.375 55.2345L298.766 56.9575ZM309.372 67.6769C312.528 69.255 316.003 70.096 319.675 70.096V66.096C316.626 66.096 313.765 65.401 311.161 64.0991L309.372 67.6769ZM319.675 70.096H353.755V66.096H319.675V70.096ZM355.755 68.096V56.096H351.755V68.096H355.755ZM353.76 54.096L318.528 54L318.517 58L353.749 58.096L353.76 54.096ZM411.125 0.799995V-1.2H409.125V0.799995H411.125ZM367.925 0.799995H369.925V-1.2H367.925V0.799995ZM355.925 0.799995V-1.2H353.925V0.799995H355.925ZM423.125 0.799995H425.125V-1.2H423.125V0.799995ZM409.125 0.799995V34.4H413.125V0.799995H409.125ZM409.125 34.4C409.125 45.1994 400.324 54 389.525 54V58C402.534 58 413.125 47.4086 413.125 34.4H409.125ZM389.525 54C378.726 54 369.925 45.1994 369.925 34.4H365.925C365.925 47.4086 376.516 58 389.525 58V54ZM369.925 34.4V0.799995H365.925V34.4H369.925ZM367.925 -1.2H355.925V2.8H367.925V-1.2ZM353.925 0.799995V34.4H357.925V0.799995H353.925ZM353.925 34.4C353.925 54.0326 369.892 70 389.525 70V66C372.102 66 357.925 51.8234 357.925 34.4H353.925ZM389.525 70C409.158 70 425.125 54.0326 425.125 34.4H421.125C421.125 51.8234 406.948 66 389.525 66V70ZM425.125 34.4V0.799995H421.125V34.4H425.125ZM423.125 -1.2H411.125V2.8H423.125V-1.2ZM487.906 6.08L486.492 7.49421L486.492 7.49425L487.906 6.08ZM432.802 0.799995V-1.2H430.802V0.799995H432.802ZM432.802 68H430.802V70H432.802V68ZM444.802 68V70H446.802V68H444.802ZM444.802 37.088V35.088H442.802V37.088H444.802ZM476.962 37.088V39.088H478.962V37.088H476.962ZM476.962 36.992V34.992H474.962V36.992H476.962ZM477.538 36.992V38.992H477.643L477.748 38.981L477.538 36.992ZM482.722 35.552L481.884 33.7361L481.877 33.7392L481.871 33.7424L482.722 35.552ZM488.002 6.17599L489.437 4.78242L489.427 4.77201L489.416 4.76174L488.002 6.17599ZM477.73 24.608L478.625 26.3969L479.73 25.8441V24.608H477.73ZM444.802 25.184H442.802V27.184H444.802V25.184ZM444.802 12.8V10.8H442.802V12.8H444.802ZM479.554 14.528L480.968 13.1138L480.968 13.1138L479.554 14.528ZM477.73 24.512L476.933 22.6779L475.73 23.2007V24.512H477.73ZM489.32 4.66578C485.695 1.04074 480.68 -1.2 475.138 -1.2V2.8C479.58 2.8 483.589 4.59126 486.492 7.49421L489.32 4.66578ZM475.138 -1.2H432.802V2.8H475.138V-1.2ZM430.802 0.799995V68H434.802V0.799995H430.802ZM432.802 70H444.802V66H432.802V70ZM446.802 68V37.088H442.802V68H446.802ZM444.802 39.088H476.962V35.088H444.802V39.088ZM478.962 37.088V36.992H474.962V37.088H478.962ZM476.962 38.992C476.963 38.992 476.963 38.992 476.963 38.992C476.964 38.992 476.964 38.992 476.965 38.992C476.965 38.992 476.965 38.992 476.966 38.992C476.966 38.992 476.966 38.992 476.967 38.992C476.967 38.992 476.968 38.992 476.968 38.992C476.968 38.992 476.969 38.992 476.969 38.992C476.969 38.992 476.97 38.992 476.97 38.992C476.971 38.992 476.971 38.992 476.971 38.992C476.972 38.992 476.972 38.992 476.972 38.992C476.973 38.992 476.973 38.992 476.974 38.992C476.974 38.992 476.974 38.992 476.975 38.992C476.975 38.992 476.975 38.992 476.976 38.992C476.976 38.992 476.977 38.992 476.977 38.992C476.977 38.992 476.978 38.992 476.978 38.992C476.978 38.992 476.979 38.992 476.979 38.992C476.98 38.992 476.98 38.992 476.98 38.992C476.981 38.992 476.981 38.992 476.981 38.992C476.982 38.992 476.982 38.992 476.983 38.992C476.983 38.992 476.983 38.992 476.984 38.992C476.984 38.992 476.984 38.992 476.985 38.992C476.985 38.992 476.986 38.992 476.986 38.992C476.986 38.992 476.987 38.992 476.987 38.992C476.987 38.992 476.988 38.992 476.988 38.992C476.989 38.992 476.989 38.992 476.989 38.992C476.99 38.992 476.99 38.992 476.99 38.992C476.991 38.992 476.991 38.992 476.992 38.992C476.992 38.992 476.992 38.992 476.993 38.992C476.993 38.992 476.993 38.992 476.994 38.992C476.994 38.992 476.995 38.992 476.995 38.992C476.995 38.992 476.996 38.992 476.996 38.992C476.996 38.992 476.997 38.992 476.997 38.992C476.998 38.992 476.998 38.992 476.998 38.992C476.999 38.992 476.999 38.992 476.999 38.992C477 38.992 477 38.992 477.001 38.992C477.001 38.992 477.001 38.992 477.002 38.992C477.002 38.992 477.002 38.992 477.003 38.992C477.003 38.992 477.004 38.992 477.004 38.992C477.004 38.992 477.005 38.992 477.005 38.992C477.005 38.992 477.006 38.992 477.006 38.992C477.007 38.992 477.007 38.992 477.007 38.992C477.008 38.992 477.008 38.992 477.008 38.992C477.009 38.992 477.009 38.992 477.01 38.992C477.01 38.992 477.01 38.992 477.011 38.992C477.011 38.992 477.011 38.992 477.012 38.992C477.012 38.992 477.013 38.992 477.013 38.992C477.013 38.992 477.014 38.992 477.014 38.992C477.014 38.992 477.015 38.992 477.015 38.992C477.016 38.992 477.016 38.992 477.016 38.992C477.017 38.992 477.017 38.992 477.017 38.992C477.018 38.992 477.018 38.992 477.019 38.992C477.019 38.992 477.019 38.992 477.02 38.992C477.02 38.992 477.02 38.992 477.021 38.992C477.021 38.992 477.022 38.992 477.022 38.992C477.022 38.992 477.023 38.992 477.023 38.992C477.023 38.992 477.024 38.992 477.024 38.992C477.025 38.992 477.025 38.992 477.025 38.992C477.026 38.992 477.026 38.992 477.026 38.992C477.027 38.992 477.027 38.992 477.028 38.992C477.028 38.992 477.028 38.992 477.029 38.992C477.029 38.992 477.029 38.992 477.03 38.992C477.03 38.992 477.031 38.992 477.031 38.992C477.031 38.992 477.032 38.992 477.032 38.992C477.032 38.992 477.033 38.992 477.033 38.992C477.034 38.992 477.034 38.992 477.034 38.992C477.035 38.992 477.035 38.992 477.035 38.992C477.036 38.992 477.036 38.992 477.037 38.992C477.037 38.992 477.037 38.992 477.038 38.992C477.038 38.992 477.038 38.992 477.039 38.992C477.039 38.992 477.04 38.992 477.04 38.992C477.04 38.992 477.041 38.992 477.041 38.992C477.041 38.992 477.042 38.992 477.042 38.992C477.043 38.992 477.043 38.992 477.043 38.992C477.044 38.992 477.044 38.992 477.044 38.992C477.045 38.992 477.045 38.992 477.046 38.992C477.046 38.992 477.046 38.992 477.047 38.992C477.047 38.992 477.047 38.992 477.048 38.992C477.048 38.992 477.049 38.992 477.049 38.992C477.049 38.992 477.05 38.992 477.05 38.992C477.05 38.992 477.051 38.992 477.051 38.992C477.052 38.992 477.052 38.992 477.052 38.992C477.053 38.992 477.053 38.992 477.053 38.992C477.054 38.992 477.054 38.992 477.055 38.992C477.055 38.992 477.055 38.992 477.056 38.992C477.056 38.992 477.056 38.992 477.057 38.992C477.057 38.992 477.058 38.992 477.058 38.992C477.058 38.992 477.059 38.992 477.059 38.992C477.059 38.992 477.06 38.992 477.06 38.992C477.061 38.992 477.061 38.992 477.061 38.992C477.062 38.992 477.062 38.992 477.062 38.992C477.063 38.992 477.063 38.992 477.064 38.992C477.064 38.992 477.064 38.992 477.065 38.992C477.065 38.992 477.065 38.992 477.066 38.992C477.066 38.992 477.067 38.992 477.067 38.992C477.067 38.992 477.068 38.992 477.068 38.992C477.068 38.992 477.069 38.992 477.069 38.992C477.07 38.992 477.07 38.992 477.07 38.992C477.071 38.992 477.071 38.992 477.071 38.992C477.072 38.992 477.072 38.992 477.073 38.992C477.073 38.992 477.073 38.992 477.074 38.992C477.074 38.992 477.074 38.992 477.075 38.992C477.075 38.992 477.076 38.992 477.076 38.992C477.076 38.992 477.077 38.992 477.077 38.992C477.077 38.992 477.078 38.992 477.078 38.992C477.079 38.992 477.079 38.992 477.079 38.992C477.08 38.992 477.08 38.992 477.08 38.992C477.081 38.992 477.081 38.992 477.082 38.992C477.082 38.992 477.082 38.992 477.083 38.992C477.083 38.992 477.083 38.992 477.084 38.992C477.084 38.992 477.085 38.992 477.085 38.992C477.085 38.992 477.086 38.992 477.086 38.992C477.086 38.992 477.087 38.992 477.087 38.992C477.088 38.992 477.088 38.992 477.088 38.992C477.089 38.992 477.089 38.992 477.089 38.992C477.09 38.992 477.09 38.992 477.091 38.992C477.091 38.992 477.091 38.992 477.092 38.992C477.092 38.992 477.092 38.992 477.093 38.992C477.093 38.992 477.094 38.992 477.094 38.992C477.094 38.992 477.095 38.992 477.095 38.992C477.095 38.992 477.096 38.992 477.096 38.992C477.097 38.992 477.097 38.992 477.097 38.992C477.098 38.992 477.098 38.992 477.098 38.992C477.099 38.992 477.099 38.992 477.1 38.992C477.1 38.992 477.1 38.992 477.101 38.992C477.101 38.992 477.101 38.992 477.102 38.992C477.102 38.992 477.103 38.992 477.103 38.992C477.103 38.992 477.104 38.992 477.104 38.992C477.104 38.992 477.105 38.992 477.105 38.992C477.106 38.992 477.106 38.992 477.106 38.992C477.107 38.992 477.107 38.992 477.107 38.992C477.108 38.992 477.108 38.992 477.109 38.992C477.109 38.992 477.109 38.992 477.11 38.992C477.11 38.992 477.11 38.992 477.111 38.992C477.111 38.992 477.112 38.992 477.112 38.992C477.112 38.992 477.113 38.992 477.113 38.992C477.113 38.992 477.114 38.992 477.114 38.992C477.115 38.992 477.115 38.992 477.115 38.992C477.116 38.992 477.116 38.992 477.116 38.992C477.117 38.992 477.117 38.992 477.118 38.992C477.118 38.992 477.118 38.992 477.119 38.992C477.119 38.992 477.119 38.992 477.12 38.992C477.12 38.992 477.121 38.992 477.121 38.992C477.121 38.992 477.122 38.992 477.122 38.992C477.122 38.992 477.123 38.992 477.123 38.992C477.124 38.992 477.124 38.992 477.124 38.992C477.125 38.992 477.125 38.992 477.125 38.992C477.126 38.992 477.126 38.992 477.127 38.992C477.127 38.992 477.127 38.992 477.128 38.992C477.128 38.992 477.128 38.992 477.129 38.992C477.129 38.992 477.13 38.992 477.13 38.992C477.13 38.992 477.131 38.992 477.131 38.992C477.131 38.992 477.132 38.992 477.132 38.992C477.133 38.992 477.133 38.992 477.133 38.992C477.134 38.992 477.134 38.992 477.134 38.992C477.135 38.992 477.135 38.992 477.136 38.992C477.136 38.992 477.136 38.992 477.137 38.992C477.137 38.992 477.137 38.992 477.138 38.992C477.138 38.992 477.139 38.992 477.139 38.992C477.139 38.992 477.14 38.992 477.14 38.992C477.14 38.992 477.141 38.992 477.141 38.992C477.142 38.992 477.142 38.992 477.142 38.992C477.143 38.992 477.143 38.992 477.143 38.992C477.144 38.992 477.144 38.992 477.145 38.992C477.145 38.992 477.145 38.992 477.146 38.992C477.146 38.992 477.146 38.992 477.147 38.992C477.147 38.992 477.148 38.992 477.148 38.992C477.148 38.992 477.149 38.992 477.149 38.992C477.149 38.992 477.15 38.992 477.15 38.992C477.151 38.992 477.151 38.992 477.151 38.992C477.152 38.992 477.152 38.992 477.152 38.992C477.153 38.992 477.153 38.992 477.154 38.992C477.154 38.992 477.154 38.992 477.155 38.992C477.155 38.992 477.155 38.992 477.156 38.992C477.156 38.992 477.157 38.992 477.157 38.992C477.157 38.992 477.158 38.992 477.158 38.992C477.158 38.992 477.159 38.992 477.159 38.992C477.16 38.992 477.16 38.992 477.16 38.992C477.161 38.992 477.161 38.992 477.161 38.992C477.162 38.992 477.162 38.992 477.163 38.992C477.163 38.992 477.163 38.992 477.164 38.992C477.164 38.992 477.164 38.992 477.165 38.992C477.165 38.992 477.166 38.992 477.166 38.992C477.166 38.992 477.167 38.992 477.167 38.992C477.167 38.992 477.168 38.992 477.168 38.992C477.169 38.992 477.169 38.992 477.169 38.992C477.17 38.992 477.17 38.992 477.17 38.992C477.171 38.992 477.171 38.992 477.172 38.992C477.172 38.992 477.172 38.992 477.173 38.992C477.173 38.992 477.173 38.992 477.174 38.992C477.174 38.992 477.175 38.992 477.175 38.992C477.175 38.992 477.176 38.992 477.176 38.992C477.176 38.992 477.177 38.992 477.177 38.992C477.178 38.992 477.178 38.992 477.178 38.992C477.179 38.992 477.179 38.992 477.179 38.992C477.18 38.992 477.18 38.992 477.181 38.992C477.181 38.992 477.181 38.992 477.182 38.992C477.182 38.992 477.182 38.992 477.183 38.992C477.183 38.992 477.184 38.992 477.184 38.992C477.184 38.992 477.185 38.992 477.185 38.992C477.185 38.992 477.186 38.992 477.186 38.992C477.187 38.992 477.187 38.992 477.187 38.992C477.188 38.992 477.188 38.992 477.188 38.992C477.189 38.992 477.189 38.992 477.19 38.992C477.19 38.992 477.19 38.992 477.191 38.992C477.191 38.992 477.191 38.992 477.192 38.992C477.192 38.992 477.193 38.992 477.193 38.992C477.193 38.992 477.194 38.992 477.194 38.992C477.194 38.992 477.195 38.992 477.195 38.992C477.196 38.992 477.196 38.992 477.196 38.992C477.197 38.992 477.197 38.992 477.197 38.992C477.198 38.992 477.198 38.992 477.199 38.992C477.199 38.992 477.199 38.992 477.2 38.992C477.2 38.992 477.2 38.992 477.201 38.992C477.201 38.992 477.202 38.992 477.202 38.992C477.202 38.992 477.203 38.992 477.203 38.992C477.203 38.992 477.204 38.992 477.204 38.992C477.205 38.992 477.205 38.992 477.205 38.992C477.206 38.992 477.206 38.992 477.206 38.992C477.207 38.992 477.207 38.992 477.208 38.992C477.208 38.992 477.208 38.992 477.209 38.992C477.209 38.992 477.209 38.992 477.21 38.992C477.21 38.992 477.211 38.992 477.211 38.992C477.211 38.992 477.212 38.992 477.212 38.992C477.212 38.992 477.213 38.992 477.213 38.992C477.214 38.992 477.214 38.992 477.214 38.992C477.215 38.992 477.215 38.992 477.215 38.992C477.216 38.992 477.216 38.992 477.217 38.992C477.217 38.992 477.217 38.992 477.218 38.992C477.218 38.992 477.218 38.992 477.219 38.992C477.219 38.992 477.22 38.992 477.22 38.992C477.22 38.992 477.221 38.992 477.221 38.992C477.221 38.992 477.222 38.992 477.222 38.992C477.223 38.992 477.223 38.992 477.223 38.992C477.224 38.992 477.224 38.992 477.224 38.992C477.225 38.992 477.225 38.992 477.226 38.992C477.226 38.992 477.226 38.992 477.227 38.992C477.227 38.992 477.227 38.992 477.228 38.992C477.228 38.992 477.229 38.992 477.229 38.992C477.229 38.992 477.23 38.992 477.23 38.992C477.23 38.992 477.231 38.992 477.231 38.992C477.232 38.992 477.232 38.992 477.232 38.992C477.233 38.992 477.233 38.992 477.233 38.992C477.234 38.992 477.234 38.992 477.235 38.992C477.235 38.992 477.235 38.992 477.236 38.992C477.236 38.992 477.236 38.992 477.237 38.992C477.237 38.992 477.238 38.992 477.238 38.992C477.238 38.992 477.239 38.992 477.239 38.992C477.239 38.992 477.24 38.992 477.24 38.992C477.241 38.992 477.241 38.992 477.241 38.992C477.242 38.992 477.242 38.992 477.242 38.992C477.243 38.992 477.243 38.992 477.244 38.992C477.244 38.992 477.244 38.992 477.245 38.992C477.245 38.992 477.245 38.992 477.246 38.992C477.246 38.992 477.247 38.992 477.247 38.992C477.247 38.992 477.248 38.992 477.248 38.992C477.248 38.992 477.249 38.992 477.249 38.992C477.25 38.992 477.25 38.992 477.25 38.992C477.251 38.992 477.251 38.992 477.251 38.992C477.252 38.992 477.252 38.992 477.253 38.992C477.253 38.992 477.253 38.992 477.254 38.992C477.254 38.992 477.254 38.992 477.255 38.992C477.255 38.992 477.256 38.992 477.256 38.992C477.256 38.992 477.257 38.992 477.257 38.992C477.257 38.992 477.258 38.992 477.258 38.992C477.259 38.992 477.259 38.992 477.259 38.992C477.26 38.992 477.26 38.992 477.26 38.992C477.261 38.992 477.261 38.992 477.262 38.992C477.262 38.992 477.262 38.992 477.263 38.992C477.263 38.992 477.263 38.992 477.264 38.992C477.264 38.992 477.265 38.992 477.265 38.992C477.265 38.992 477.266 38.992 477.266 38.992C477.266 38.992 477.267 38.992 477.267 38.992C477.268 38.992 477.268 38.992 477.268 38.992C477.269 38.992 477.269 38.992 477.269 38.992C477.27 38.992 477.27 38.992 477.271 38.992C477.271 38.992 477.271 38.992 477.272 38.992C477.272 38.992 477.272 38.992 477.273 38.992C477.273 38.992 477.274 38.992 477.274 38.992C477.274 38.992 477.275 38.992 477.275 38.992C477.275 38.992 477.276 38.992 477.276 38.992C477.277 38.992 477.277 38.992 477.277 38.992C477.278 38.992 477.278 38.992 477.278 38.992C477.279 38.992 477.279 38.992 477.28 38.992C477.28 38.992 477.28 38.992 477.281 38.992C477.281 38.992 477.281 38.992 477.282 38.992C477.282 38.992 477.283 38.992 477.283 38.992C477.283 38.992 477.284 38.992 477.284 38.992C477.284 38.992 477.285 38.992 477.285 38.992C477.286 38.992 477.286 38.992 477.286 38.992C477.287 38.992 477.287 38.992 477.287 38.992C477.288 38.992 477.288 38.992 477.289 38.992C477.289 38.992 477.289 38.992 477.29 38.992C477.29 38.992 477.29 38.992 477.291 38.992C477.291 38.992 477.292 38.992 477.292 38.992C477.292 38.992 477.293 38.992 477.293 38.992C477.293 38.992 477.294 38.992 477.294 38.992C477.295 38.992 477.295 38.992 477.295 38.992C477.296 38.992 477.296 38.992 477.296 38.992C477.297 38.992 477.297 38.992 477.298 38.992C477.298 38.992 477.298 38.992 477.299 38.992C477.299 38.992 477.299 38.992 477.3 38.992C477.3 38.992 477.301 38.992 477.301 38.992C477.301 38.992 477.302 38.992 477.302 38.992C477.302 38.992 477.303 38.992 477.303 38.992C477.304 38.992 477.304 38.992 477.304 38.992C477.305 38.992 477.305 38.992 477.305 38.992C477.306 38.992 477.306 38.992 477.307 38.992C477.307 38.992 477.307 38.992 477.308 38.992C477.308 38.992 477.308 38.992 477.309 38.992C477.309 38.992 477.31 38.992 477.31 38.992C477.31 38.992 477.311 38.992 477.311 38.992C477.311 38.992 477.312 38.992 477.312 38.992C477.313 38.992 477.313 38.992 477.313 38.992C477.314 38.992 477.314 38.992 477.314 38.992C477.315 38.992 477.315 38.992 477.316 38.992C477.316 38.992 477.316 38.992 477.317 38.992C477.317 38.992 477.317 38.992 477.318 38.992C477.318 38.992 477.319 38.992 477.319 38.992C477.319 38.992 477.32 38.992 477.32 38.992C477.32 38.992 477.321 38.992 477.321 38.992C477.322 38.992 477.322 38.992 477.322 38.992C477.323 38.992 477.323 38.992 477.323 38.992C477.324 38.992 477.324 38.992 477.325 38.992C477.325 38.992 477.325 38.992 477.326 38.992C477.326 38.992 477.326 38.992 477.327 38.992C477.327 38.992 477.328 38.992 477.328 38.992C477.328 38.992 477.329 38.992 477.329 38.992C477.329 38.992 477.33 38.992 477.33 38.992C477.331 38.992 477.331 38.992 477.331 38.992C477.332 38.992 477.332 38.992 477.332 38.992C477.333 38.992 477.333 38.992 477.334 38.992C477.334 38.992 477.334 38.992 477.335 38.992C477.335 38.992 477.335 38.992 477.336 38.992C477.336 38.992 477.337 38.992 477.337 38.992C477.337 38.992 477.338 38.992 477.338 38.992C477.338 38.992 477.339 38.992 477.339 38.992C477.34 38.992 477.34 38.992 477.34 38.992C477.341 38.992 477.341 38.992 477.341 38.992C477.342 38.992 477.342 38.992 477.343 38.992C477.343 38.992 477.343 38.992 477.344 38.992C477.344 38.992 477.344 38.992 477.345 38.992C477.345 38.992 477.346 38.992 477.346 38.992C477.346 38.992 477.347 38.992 477.347 38.992C477.347 38.992 477.348 38.992 477.348 38.992C477.349 38.992 477.349 38.992 477.349 38.992C477.35 38.992 477.35 38.992 477.35 38.992C477.351 38.992 477.351 38.992 477.352 38.992C477.352 38.992 477.352 38.992 477.353 38.992C477.353 38.992 477.353 38.992 477.354 38.992C477.354 38.992 477.355 38.992 477.355 38.992C477.355 38.992 477.356 38.992 477.356 38.992C477.356 38.992 477.357 38.992 477.357 38.992C477.358 38.992 477.358 38.992 477.358 38.992C477.359 38.992 477.359 38.992 477.359 38.992C477.36 38.992 477.36 38.992 477.361 38.992C477.361 38.992 477.361 38.992 477.362 38.992C477.362 38.992 477.362 38.992 477.363 38.992C477.363 38.992 477.364 38.992 477.364 38.992C477.364 38.992 477.365 38.992 477.365 38.992C477.365 38.992 477.366 38.992 477.366 38.992C477.367 38.992 477.367 38.992 477.367 38.992C477.368 38.992 477.368 38.992 477.368 38.992C477.369 38.992 477.369 38.992 477.37 38.992C477.37 38.992 477.37 38.992 477.371 38.992C477.371 38.992 477.371 38.992 477.372 38.992C477.372 38.992 477.373 38.992 477.373 38.992C477.373 38.992 477.374 38.992 477.374 38.992C477.374 38.992 477.375 38.992 477.375 38.992C477.376 38.992 477.376 38.992 477.376 38.992C477.377 38.992 477.377 38.992 477.377 38.992C477.378 38.992 477.378 38.992 477.379 38.992C477.379 38.992 477.379 38.992 477.38 38.992C477.38 38.992 477.38 38.992 477.381 38.992C477.381 38.992 477.382 38.992 477.382 38.992C477.382 38.992 477.383 38.992 477.383 38.992C477.383 38.992 477.384 38.992 477.384 38.992C477.385 38.992 477.385 38.992 477.385 38.992C477.386 38.992 477.386 38.992 477.386 38.992C477.387 38.992 477.387 38.992 477.388 38.992C477.388 38.992 477.388 38.992 477.389 38.992C477.389 38.992 477.389 38.992 477.39 38.992C477.39 38.992 477.391 38.992 477.391 38.992C477.391 38.992 477.392 38.992 477.392 38.992C477.392 38.992 477.393 38.992 477.393 38.992C477.394 38.992 477.394 38.992 477.394 38.992C477.395 38.992 477.395 38.992 477.395 38.992C477.396 38.992 477.396 38.992 477.397 38.992C477.397 38.992 477.397 38.992 477.398 38.992C477.398 38.992 477.398 38.992 477.399 38.992C477.399 38.992 477.4 38.992 477.4 38.992C477.4 38.992 477.401 38.992 477.401 38.992C477.401 38.992 477.402 38.992 477.402 38.992C477.403 38.992 477.403 38.992 477.403 38.992C477.404 38.992 477.404 38.992 477.404 38.992C477.405 38.992 477.405 38.992 477.406 38.992C477.406 38.992 477.406 38.992 477.407 38.992C477.407 38.992 477.407 38.992 477.408 38.992C477.408 38.992 477.409 38.992 477.409 38.992C477.409 38.992 477.41 38.992 477.41 38.992C477.41 38.992 477.411 38.992 477.411 38.992C477.412 38.992 477.412 38.992 477.412 38.992C477.413 38.992 477.413 38.992 477.413 38.992C477.414 38.992 477.414 38.992 477.415 38.992C477.415 38.992 477.415 38.992 477.416 38.992C477.416 38.992 477.416 38.992 477.417 38.992C477.417 38.992 477.418 38.992 477.418 38.992C477.418 38.992 477.419 38.992 477.419 38.992C477.419 38.992 477.42 38.992 477.42 38.992C477.421 38.992 477.421 38.992 477.421 38.992C477.422 38.992 477.422 38.992 477.422 38.992C477.423 38.992 477.423 38.992 477.424 38.992C477.424 38.992 477.424 38.992 477.425 38.992C477.425 38.992 477.425 38.992 477.426 38.992C477.426 38.992 477.427 38.992 477.427 38.992C477.427 38.992 477.428 38.992 477.428 38.992C477.428 38.992 477.429 38.992 477.429 38.992C477.43 38.992 477.43 38.992 477.43 38.992C477.431 38.992 477.431 38.992 477.431 38.992C477.432 38.992 477.432 38.992 477.433 38.992C477.433 38.992 477.433 38.992 477.434 38.992C477.434 38.992 477.434 38.992 477.435 38.992C477.435 38.992 477.436 38.992 477.436 38.992C477.436 38.992 477.437 38.992 477.437 38.992C477.437 38.992 477.438 38.992 477.438 38.992C477.439 38.992 477.439 38.992 477.439 38.992C477.44 38.992 477.44 38.992 477.44 38.992C477.441 38.992 477.441 38.992 477.442 38.992C477.442 38.992 477.442 38.992 477.443 38.992C477.443 38.992 477.443 38.992 477.444 38.992C477.444 38.992 477.445 38.992 477.445 38.992C477.445 38.992 477.446 38.992 477.446 38.992C477.446 38.992 477.447 38.992 477.447 38.992C477.448 38.992 477.448 38.992 477.448 38.992C477.449 38.992 477.449 38.992 477.449 38.992C477.45 38.992 477.45 38.992 477.451 38.992C477.451 38.992 477.451 38.992 477.452 38.992C477.452 38.992 477.452 38.992 477.453 38.992C477.453 38.992 477.454 38.992 477.454 38.992C477.454 38.992 477.455 38.992 477.455 38.992C477.455 38.992 477.456 38.992 477.456 38.992C477.457 38.992 477.457 38.992 477.457 38.992C477.458 38.992 477.458 38.992 477.458 38.992C477.459 38.992 477.459 38.992 477.46 38.992C477.46 38.992 477.46 38.992 477.461 38.992C477.461 38.992 477.461 38.992 477.462 38.992C477.462 38.992 477.463 38.992 477.463 38.992C477.463 38.992 477.464 38.992 477.464 38.992C477.464 38.992 477.465 38.992 477.465 38.992C477.466 38.992 477.466 38.992 477.466 38.992C477.467 38.992 477.467 38.992 477.467 38.992C477.468 38.992 477.468 38.992 477.469 38.992C477.469 38.992 477.469 38.992 477.47 38.992C477.47 38.992 477.47 38.992 477.471 38.992C477.471 38.992 477.472 38.992 477.472 38.992C477.472 38.992 477.473 38.992 477.473 38.992C477.473 38.992 477.474 38.992 477.474 38.992C477.475 38.992 477.475 38.992 477.475 38.992C477.476 38.992 477.476 38.992 477.476 38.992C477.477 38.992 477.477 38.992 477.478 38.992C477.478 38.992 477.478 38.992 477.479 38.992C477.479 38.992 477.479 38.992 477.48 38.992C477.48 38.992 477.481 38.992 477.481 38.992C477.481 38.992 477.482 38.992 477.482 38.992C477.482 38.992 477.483 38.992 477.483 38.992C477.484 38.992 477.484 38.992 477.484 38.992C477.485 38.992 477.485 38.992 477.485 38.992C477.486 38.992 477.486 38.992 477.487 38.992C477.487 38.992 477.487 38.992 477.488 38.992C477.488 38.992 477.488 38.992 477.489 38.992C477.489 38.992 477.49 38.992 477.49 38.992C477.49 38.992 477.491 38.992 477.491 38.992C477.491 38.992 477.492 38.992 477.492 38.992C477.493 38.992 477.493 38.992 477.493 38.992C477.494 38.992 477.494 38.992 477.494 38.992C477.495 38.992 477.495 38.992 477.496 38.992C477.496 38.992 477.496 38.992 477.497 38.992C477.497 38.992 477.497 38.992 477.498 38.992C477.498 38.992 477.499 38.992 477.499 38.992C477.499 38.992 477.5 38.992 477.5 38.992C477.5 38.992 477.501 38.992 477.501 38.992C477.502 38.992 477.502 38.992 477.502 38.992C477.503 38.992 477.503 38.992 477.503 38.992C477.504 38.992 477.504 38.992 477.505 38.992C477.505 38.992 477.505 38.992 477.506 38.992C477.506 38.992 477.506 38.992 477.507 38.992C477.507 38.992 477.508 38.992 477.508 38.992C477.508 38.992 477.509 38.992 477.509 38.992C477.509 38.992 477.51 38.992 477.51 38.992C477.511 38.992 477.511 38.992 477.511 38.992C477.512 38.992 477.512 38.992 477.512 38.992C477.513 38.992 477.513 38.992 477.514 38.992C477.514 38.992 477.514 38.992 477.515 38.992C477.515 38.992 477.515 38.992 477.516 38.992C477.516 38.992 477.517 38.992 477.517 38.992C477.517 38.992 477.518 38.992 477.518 38.992C477.518 38.992 477.519 38.992 477.519 38.992C477.52 38.992 477.52 38.992 477.52 38.992C477.521 38.992 477.521 38.992 477.521 38.992C477.522 38.992 477.522 38.992 477.523 38.992C477.523 38.992 477.523 38.992 477.524 38.992C477.524 38.992 477.524 38.992 477.525 38.992C477.525 38.992 477.526 38.992 477.526 38.992C477.526 38.992 477.527 38.992 477.527 38.992C477.527 38.992 477.528 38.992 477.528 38.992C477.529 38.992 477.529 38.992 477.529 38.992C477.53 38.992 477.53 38.992 477.53 38.992C477.531 38.992 477.531 38.992 477.532 38.992C477.532 38.992 477.532 38.992 477.533 38.992C477.533 38.992 477.533 38.992 477.534 38.992C477.534 38.992 477.535 38.992 477.535 38.992C477.535 38.992 477.536 38.992 477.536 38.992C477.536 38.992 477.537 38.992 477.537 38.992C477.538 38.992 477.538 38.992 477.538 38.992V34.992C477.538 34.992 477.538 34.992 477.537 34.992C477.537 34.992 477.536 34.992 477.536 34.992C477.536 34.992 477.535 34.992 477.535 34.992C477.535 34.992 477.534 34.992 477.534 34.992C477.533 34.992 477.533 34.992 477.533 34.992C477.532 34.992 477.532 34.992 477.532 34.992C477.531 34.992 477.531 34.992 477.53 34.992C477.53 34.992 477.53 34.992 477.529 34.992C477.529 34.992 477.529 34.992 477.528 34.992C477.528 34.992 477.527 34.992 477.527 34.992C477.527 34.992 477.526 34.992 477.526 34.992C477.526 34.992 477.525 34.992 477.525 34.992C477.524 34.992 477.524 34.992 477.524 34.992C477.523 34.992 477.523 34.992 477.523 34.992C477.522 34.992 477.522 34.992 477.521 34.992C477.521 34.992 477.521 34.992 477.52 34.992C477.52 34.992 477.52 34.992 477.519 34.992C477.519 34.992 477.518 34.992 477.518 34.992C477.518 34.992 477.517 34.992 477.517 34.992C477.517 34.992 477.516 34.992 477.516 34.992C477.515 34.992 477.515 34.992 477.515 34.992C477.514 34.992 477.514 34.992 477.514 34.992C477.513 34.992 477.513 34.992 477.512 34.992C477.512 34.992 477.512 34.992 477.511 34.992C477.511 34.992 477.511 34.992 477.51 34.992C477.51 34.992 477.509 34.992 477.509 34.992C477.509 34.992 477.508 34.992 477.508 34.992C477.508 34.992 477.507 34.992 477.507 34.992C477.506 34.992 477.506 34.992 477.506 34.992C477.505 34.992 477.505 34.992 477.505 34.992C477.504 34.992 477.504 34.992 477.503 34.992C477.503 34.992 477.503 34.992 477.502 34.992C477.502 34.992 477.502 34.992 477.501 34.992C477.501 34.992 477.5 34.992 477.5 34.992C477.5 34.992 477.499 34.992 477.499 34.992C477.499 34.992 477.498 34.992 477.498 34.992C477.497 34.992 477.497 34.992 477.497 34.992C477.496 34.992 477.496 34.992 477.496 34.992C477.495 34.992 477.495 34.992 477.494 34.992C477.494 34.992 477.494 34.992 477.493 34.992C477.493 34.992 477.493 34.992 477.492 34.992C477.492 34.992 477.491 34.992 477.491 34.992C477.491 34.992 477.49 34.992 477.49 34.992C477.49 34.992 477.489 34.992 477.489 34.992C477.488 34.992 477.488 34.992 477.488 34.992C477.487 34.992 477.487 34.992 477.487 34.992C477.486 34.992 477.486 34.992 477.485 34.992C477.485 34.992 477.485 34.992 477.484 34.992C477.484 34.992 477.484 34.992 477.483 34.992C477.483 34.992 477.482 34.992 477.482 34.992C477.482 34.992 477.481 34.992 477.481 34.992C477.481 34.992 477.48 34.992 477.48 34.992C477.479 34.992 477.479 34.992 477.479 34.992C477.478 34.992 477.478 34.992 477.478 34.992C477.477 34.992 477.477 34.992 477.476 34.992C477.476 34.992 477.476 34.992 477.475 34.992C477.475 34.992 477.475 34.992 477.474 34.992C477.474 34.992 477.473 34.992 477.473 34.992C477.473 34.992 477.472 34.992 477.472 34.992C477.472 34.992 477.471 34.992 477.471 34.992C477.47 34.992 477.47 34.992 477.47 34.992C477.469 34.992 477.469 34.992 477.469 34.992C477.468 34.992 477.468 34.992 477.467 34.992C477.467 34.992 477.467 34.992 477.466 34.992C477.466 34.992 477.466 34.992 477.465 34.992C477.465 34.992 477.464 34.992 477.464 34.992C477.464 34.992 477.463 34.992 477.463 34.992C477.463 34.992 477.462 34.992 477.462 34.992C477.461 34.992 477.461 34.992 477.461 34.992C477.46 34.992 477.46 34.992 477.46 34.992C477.459 34.992 477.459 34.992 477.458 34.992C477.458 34.992 477.458 34.992 477.457 34.992C477.457 34.992 477.457 34.992 477.456 34.992C477.456 34.992 477.455 34.992 477.455 34.992C477.455 34.992 477.454 34.992 477.454 34.992C477.454 34.992 477.453 34.992 477.453 34.992C477.452 34.992 477.452 34.992 477.452 34.992C477.451 34.992 477.451 34.992 477.451 34.992C477.45 34.992 477.45 34.992 477.449 34.992C477.449 34.992 477.449 34.992 477.448 34.992C477.448 34.992 477.448 34.992 477.447 34.992C477.447 34.992 477.446 34.992 477.446 34.992C477.446 34.992 477.445 34.992 477.445 34.992C477.445 34.992 477.444 34.992 477.444 34.992C477.443 34.992 477.443 34.992 477.443 34.992C477.442 34.992 477.442 34.992 477.442 34.992C477.441 34.992 477.441 34.992 477.44 34.992C477.44 34.992 477.44 34.992 477.439 34.992C477.439 34.992 477.439 34.992 477.438 34.992C477.438 34.992 477.437 34.992 477.437 34.992C477.437 34.992 477.436 34.992 477.436 34.992C477.436 34.992 477.435 34.992 477.435 34.992C477.434 34.992 477.434 34.992 477.434 34.992C477.433 34.992 477.433 34.992 477.433 34.992C477.432 34.992 477.432 34.992 477.431 34.992C477.431 34.992 477.431 34.992 477.43 34.992C477.43 34.992 477.43 34.992 477.429 34.992C477.429 34.992 477.428 34.992 477.428 34.992C477.428 34.992 477.427 34.992 477.427 34.992C477.427 34.992 477.426 34.992 477.426 34.992C477.425 34.992 477.425 34.992 477.425 34.992C477.424 34.992 477.424 34.992 477.424 34.992C477.423 34.992 477.423 34.992 477.422 34.992C477.422 34.992 477.422 34.992 477.421 34.992C477.421 34.992 477.421 34.992 477.42 34.992C477.42 34.992 477.419 34.992 477.419 34.992C477.419 34.992 477.418 34.992 477.418 34.992C477.418 34.992 477.417 34.992 477.417 34.992C477.416 34.992 477.416 34.992 477.416 34.992C477.415 34.992 477.415 34.992 477.415 34.992C477.414 34.992 477.414 34.992 477.413 34.992C477.413 34.992 477.413 34.992 477.412 34.992C477.412 34.992 477.412 34.992 477.411 34.992C477.411 34.992 477.41 34.992 477.41 34.992C477.41 34.992 477.409 34.992 477.409 34.992C477.409 34.992 477.408 34.992 477.408 34.992C477.407 34.992 477.407 34.992 477.407 34.992C477.406 34.992 477.406 34.992 477.406 34.992C477.405 34.992 477.405 34.992 477.404 34.992C477.404 34.992 477.404 34.992 477.403 34.992C477.403 34.992 477.403 34.992 477.402 34.992C477.402 34.992 477.401 34.992 477.401 34.992C477.401 34.992 477.4 34.992 477.4 34.992C477.4 34.992 477.399 34.992 477.399 34.992C477.398 34.992 477.398 34.992 477.398 34.992C477.397 34.992 477.397 34.992 477.397 34.992C477.396 34.992 477.396 34.992 477.395 34.992C477.395 34.992 477.395 34.992 477.394 34.992C477.394 34.992 477.394 34.992 477.393 34.992C477.393 34.992 477.392 34.992 477.392 34.992C477.392 34.992 477.391 34.992 477.391 34.992C477.391 34.992 477.39 34.992 477.39 34.992C477.389 34.992 477.389 34.992 477.389 34.992C477.388 34.992 477.388 34.992 477.388 34.992C477.387 34.992 477.387 34.992 477.386 34.992C477.386 34.992 477.386 34.992 477.385 34.992C477.385 34.992 477.385 34.992 477.384 34.992C477.384 34.992 477.383 34.992 477.383 34.992C477.383 34.992 477.382 34.992 477.382 34.992C477.382 34.992 477.381 34.992 477.381 34.992C477.38 34.992 477.38 34.992 477.38 34.992C477.379 34.992 477.379 34.992 477.379 34.992C477.378 34.992 477.378 34.992 477.377 34.992C477.377 34.992 477.377 34.992 477.376 34.992C477.376 34.992 477.376 34.992 477.375 34.992C477.375 34.992 477.374 34.992 477.374 34.992C477.374 34.992 477.373 34.992 477.373 34.992C477.373 34.992 477.372 34.992 477.372 34.992C477.371 34.992 477.371 34.992 477.371 34.992C477.37 34.992 477.37 34.992 477.37 34.992C477.369 34.992 477.369 34.992 477.368 34.992C477.368 34.992 477.368 34.992 477.367 34.992C477.367 34.992 477.367 34.992 477.366 34.992C477.366 34.992 477.365 34.992 477.365 34.992C477.365 34.992 477.364 34.992 477.364 34.992C477.364 34.992 477.363 34.992 477.363 34.992C477.362 34.992 477.362 34.992 477.362 34.992C477.361 34.992 477.361 34.992 477.361 34.992C477.36 34.992 477.36 34.992 477.359 34.992C477.359 34.992 477.359 34.992 477.358 34.992C477.358 34.992 477.358 34.992 477.357 34.992C477.357 34.992 477.356 34.992 477.356 34.992C477.356 34.992 477.355 34.992 477.355 34.992C477.355 34.992 477.354 34.992 477.354 34.992C477.353 34.992 477.353 34.992 477.353 34.992C477.352 34.992 477.352 34.992 477.352 34.992C477.351 34.992 477.351 34.992 477.35 34.992C477.35 34.992 477.35 34.992 477.349 34.992C477.349 34.992 477.349 34.992 477.348 34.992C477.348 34.992 477.347 34.992 477.347 34.992C477.347 34.992 477.346 34.992 477.346 34.992C477.346 34.992 477.345 34.992 477.345 34.992C477.344 34.992 477.344 34.992 477.344 34.992C477.343 34.992 477.343 34.992 477.343 34.992C477.342 34.992 477.342 34.992 477.341 34.992C477.341 34.992 477.341 34.992 477.34 34.992C477.34 34.992 477.34 34.992 477.339 34.992C477.339 34.992 477.338 34.992 477.338 34.992C477.338 34.992 477.337 34.992 477.337 34.992C477.337 34.992 477.336 34.992 477.336 34.992C477.335 34.992 477.335 34.992 477.335 34.992C477.334 34.992 477.334 34.992 477.334 34.992C477.333 34.992 477.333 34.992 477.332 34.992C477.332 34.992 477.332 34.992 477.331 34.992C477.331 34.992 477.331 34.992 477.33 34.992C477.33 34.992 477.329 34.992 477.329 34.992C477.329 34.992 477.328 34.992 477.328 34.992C477.328 34.992 477.327 34.992 477.327 34.992C477.326 34.992 477.326 34.992 477.326 34.992C477.325 34.992 477.325 34.992 477.325 34.992C477.324 34.992 477.324 34.992 477.323 34.992C477.323 34.992 477.323 34.992 477.322 34.992C477.322 34.992 477.322 34.992 477.321 34.992C477.321 34.992 477.32 34.992 477.32 34.992C477.32 34.992 477.319 34.992 477.319 34.992C477.319 34.992 477.318 34.992 477.318 34.992C477.317 34.992 477.317 34.992 477.317 34.992C477.316 34.992 477.316 34.992 477.316 34.992C477.315 34.992 477.315 34.992 477.314 34.992C477.314 34.992 477.314 34.992 477.313 34.992C477.313 34.992 477.313 34.992 477.312 34.992C477.312 34.992 477.311 34.992 477.311 34.992C477.311 34.992 477.31 34.992 477.31 34.992C477.31 34.992 477.309 34.992 477.309 34.992C477.308 34.992 477.308 34.992 477.308 34.992C477.307 34.992 477.307 34.992 477.307 34.992C477.306 34.992 477.306 34.992 477.305 34.992C477.305 34.992 477.305 34.992 477.304 34.992C477.304 34.992 477.304 34.992 477.303 34.992C477.303 34.992 477.302 34.992 477.302 34.992C477.302 34.992 477.301 34.992 477.301 34.992C477.301 34.992 477.3 34.992 477.3 34.992C477.299 34.992 477.299 34.992 477.299 34.992C477.298 34.992 477.298 34.992 477.298 34.992C477.297 34.992 477.297 34.992 477.296 34.992C477.296 34.992 477.296 34.992 477.295 34.992C477.295 34.992 477.295 34.992 477.294 34.992C477.294 34.992 477.293 34.992 477.293 34.992C477.293 34.992 477.292 34.992 477.292 34.992C477.292 34.992 477.291 34.992 477.291 34.992C477.29 34.992 477.29 34.992 477.29 34.992C477.289 34.992 477.289 34.992 477.289 34.992C477.288 34.992 477.288 34.992 477.287 34.992C477.287 34.992 477.287 34.992 477.286 34.992C477.286 34.992 477.286 34.992 477.285 34.992C477.285 34.992 477.284 34.992 477.284 34.992C477.284 34.992 477.283 34.992 477.283 34.992C477.283 34.992 477.282 34.992 477.282 34.992C477.281 34.992 477.281 34.992 477.281 34.992C477.28 34.992 477.28 34.992 477.28 34.992C477.279 34.992 477.279 34.992 477.278 34.992C477.278 34.992 477.278 34.992 477.277 34.992C477.277 34.992 477.277 34.992 477.276 34.992C477.276 34.992 477.275 34.992 477.275 34.992C477.275 34.992 477.274 34.992 477.274 34.992C477.274 34.992 477.273 34.992 477.273 34.992C477.272 34.992 477.272 34.992 477.272 34.992C477.271 34.992 477.271 34.992 477.271 34.992C477.27 34.992 477.27 34.992 477.269 34.992C477.269 34.992 477.269 34.992 477.268 34.992C477.268 34.992 477.268 34.992 477.267 34.992C477.267 34.992 477.266 34.992 477.266 34.992C477.266 34.992 477.265 34.992 477.265 34.992C477.265 34.992 477.264 34.992 477.264 34.992C477.263 34.992 477.263 34.992 477.263 34.992C477.262 34.992 477.262 34.992 477.262 34.992C477.261 34.992 477.261 34.992 477.26 34.992C477.26 34.992 477.26 34.992 477.259 34.992C477.259 34.992 477.259 34.992 477.258 34.992C477.258 34.992 477.257 34.992 477.257 34.992C477.257 34.992 477.256 34.992 477.256 34.992C477.256 34.992 477.255 34.992 477.255 34.992C477.254 34.992 477.254 34.992 477.254 34.992C477.253 34.992 477.253 34.992 477.253 34.992C477.252 34.992 477.252 34.992 477.251 34.992C477.251 34.992 477.251 34.992 477.25 34.992C477.25 34.992 477.25 34.992 477.249 34.992C477.249 34.992 477.248 34.992 477.248 34.992C477.248 34.992 477.247 34.992 477.247 34.992C477.247 34.992 477.246 34.992 477.246 34.992C477.245 34.992 477.245 34.992 477.245 34.992C477.244 34.992 477.244 34.992 477.244 34.992C477.243 34.992 477.243 34.992 477.242 34.992C477.242 34.992 477.242 34.992 477.241 34.992C477.241 34.992 477.241 34.992 477.24 34.992C477.24 34.992 477.239 34.992 477.239 34.992C477.239 34.992 477.238 34.992 477.238 34.992C477.238 34.992 477.237 34.992 477.237 34.992C477.236 34.992 477.236 34.992 477.236 34.992C477.235 34.992 477.235 34.992 477.235 34.992C477.234 34.992 477.234 34.992 477.233 34.992C477.233 34.992 477.233 34.992 477.232 34.992C477.232 34.992 477.232 34.992 477.231 34.992C477.231 34.992 477.23 34.992 477.23 34.992C477.23 34.992 477.229 34.992 477.229 34.992C477.229 34.992 477.228 34.992 477.228 34.992C477.227 34.992 477.227 34.992 477.227 34.992C477.226 34.992 477.226 34.992 477.226 34.992C477.225 34.992 477.225 34.992 477.224 34.992C477.224 34.992 477.224 34.992 477.223 34.992C477.223 34.992 477.223 34.992 477.222 34.992C477.222 34.992 477.221 34.992 477.221 34.992C477.221 34.992 477.22 34.992 477.22 34.992C477.22 34.992 477.219 34.992 477.219 34.992C477.218 34.992 477.218 34.992 477.218 34.992C477.217 34.992 477.217 34.992 477.217 34.992C477.216 34.992 477.216 34.992 477.215 34.992C477.215 34.992 477.215 34.992 477.214 34.992C477.214 34.992 477.214 34.992 477.213 34.992C477.213 34.992 477.212 34.992 477.212 34.992C477.212 34.992 477.211 34.992 477.211 34.992C477.211 34.992 477.21 34.992 477.21 34.992C477.209 34.992 477.209 34.992 477.209 34.992C477.208 34.992 477.208 34.992 477.208 34.992C477.207 34.992 477.207 34.992 477.206 34.992C477.206 34.992 477.206 34.992 477.205 34.992C477.205 34.992 477.205 34.992 477.204 34.992C477.204 34.992 477.203 34.992 477.203 34.992C477.203 34.992 477.202 34.992 477.202 34.992C477.202 34.992 477.201 34.992 477.201 34.992C477.2 34.992 477.2 34.992 477.2 34.992C477.199 34.992 477.199 34.992 477.199 34.992C477.198 34.992 477.198 34.992 477.197 34.992C477.197 34.992 477.197 34.992 477.196 34.992C477.196 34.992 477.196 34.992 477.195 34.992C477.195 34.992 477.194 34.992 477.194 34.992C477.194 34.992 477.193 34.992 477.193 34.992C477.193 34.992 477.192 34.992 477.192 34.992C477.191 34.992 477.191 34.992 477.191 34.992C477.19 34.992 477.19 34.992 477.19 34.992C477.189 34.992 477.189 34.992 477.188 34.992C477.188 34.992 477.188 34.992 477.187 34.992C477.187 34.992 477.187 34.992 477.186 34.992C477.186 34.992 477.185 34.992 477.185 34.992C477.185 34.992 477.184 34.992 477.184 34.992C477.184 34.992 477.183 34.992 477.183 34.992C477.182 34.992 477.182 34.992 477.182 34.992C477.181 34.992 477.181 34.992 477.181 34.992C477.18 34.992 477.18 34.992 477.179 34.992C477.179 34.992 477.179 34.992 477.178 34.992C477.178 34.992 477.178 34.992 477.177 34.992C477.177 34.992 477.176 34.992 477.176 34.992C477.176 34.992 477.175 34.992 477.175 34.992C477.175 34.992 477.174 34.992 477.174 34.992C477.173 34.992 477.173 34.992 477.173 34.992C477.172 34.992 477.172 34.992 477.172 34.992C477.171 34.992 477.171 34.992 477.17 34.992C477.17 34.992 477.17 34.992 477.169 34.992C477.169 34.992 477.169 34.992 477.168 34.992C477.168 34.992 477.167 34.992 477.167 34.992C477.167 34.992 477.166 34.992 477.166 34.992C477.166 34.992 477.165 34.992 477.165 34.992C477.164 34.992 477.164 34.992 477.164 34.992C477.163 34.992 477.163 34.992 477.163 34.992C477.162 34.992 477.162 34.992 477.161 34.992C477.161 34.992 477.161 34.992 477.16 34.992C477.16 34.992 477.16 34.992 477.159 34.992C477.159 34.992 477.158 34.992 477.158 34.992C477.158 34.992 477.157 34.992 477.157 34.992C477.157 34.992 477.156 34.992 477.156 34.992C477.155 34.992 477.155 34.992 477.155 34.992C477.154 34.992 477.154 34.992 477.154 34.992C477.153 34.992 477.153 34.992 477.152 34.992C477.152 34.992 477.152 34.992 477.151 34.992C477.151 34.992 477.151 34.992 477.15 34.992C477.15 34.992 477.149 34.992 477.149 34.992C477.149 34.992 477.148 34.992 477.148 34.992C477.148 34.992 477.147 34.992 477.147 34.992C477.146 34.992 477.146 34.992 477.146 34.992C477.145 34.992 477.145 34.992 477.145 34.992C477.144 34.992 477.144 34.992 477.143 34.992C477.143 34.992 477.143 34.992 477.142 34.992C477.142 34.992 477.142 34.992 477.141 34.992C477.141 34.992 477.14 34.992 477.14 34.992C477.14 34.992 477.139 34.992 477.139 34.992C477.139 34.992 477.138 34.992 477.138 34.992C477.137 34.992 477.137 34.992 477.137 34.992C477.136 34.992 477.136 34.992 477.136 34.992C477.135 34.992 477.135 34.992 477.134 34.992C477.134 34.992 477.134 34.992 477.133 34.992C477.133 34.992 477.133 34.992 477.132 34.992C477.132 34.992 477.131 34.992 477.131 34.992C477.131 34.992 477.13 34.992 477.13 34.992C477.13 34.992 477.129 34.992 477.129 34.992C477.128 34.992 477.128 34.992 477.128 34.992C477.127 34.992 477.127 34.992 477.127 34.992C477.126 34.992 477.126 34.992 477.125 34.992C477.125 34.992 477.125 34.992 477.124 34.992C477.124 34.992 477.124 34.992 477.123 34.992C477.123 34.992 477.122 34.992 477.122 34.992C477.122 34.992 477.121 34.992 477.121 34.992C477.121 34.992 477.12 34.992 477.12 34.992C477.119 34.992 477.119 34.992 477.119 34.992C477.118 34.992 477.118 34.992 477.118 34.992C477.117 34.992 477.117 34.992 477.116 34.992C477.116 34.992 477.116 34.992 477.115 34.992C477.115 34.992 477.115 34.992 477.114 34.992C477.114 34.992 477.113 34.992 477.113 34.992C477.113 34.992 477.112 34.992 477.112 34.992C477.112 34.992 477.111 34.992 477.111 34.992C477.11 34.992 477.11 34.992 477.11 34.992C477.109 34.992 477.109 34.992 477.109 34.992C477.108 34.992 477.108 34.992 477.107 34.992C477.107 34.992 477.107 34.992 477.106 34.992C477.106 34.992 477.106 34.992 477.105 34.992C477.105 34.992 477.104 34.992 477.104 34.992C477.104 34.992 477.103 34.992 477.103 34.992C477.103 34.992 477.102 34.992 477.102 34.992C477.101 34.992 477.101 34.992 477.101 34.992C477.1 34.992 477.1 34.992 477.1 34.992C477.099 34.992 477.099 34.992 477.098 34.992C477.098 34.992 477.098 34.992 477.097 34.992C477.097 34.992 477.097 34.992 477.096 34.992C477.096 34.992 477.095 34.992 477.095 34.992C477.095 34.992 477.094 34.992 477.094 34.992C477.094 34.992 477.093 34.992 477.093 34.992C477.092 34.992 477.092 34.992 477.092 34.992C477.091 34.992 477.091 34.992 477.091 34.992C477.09 34.992 477.09 34.992 477.089 34.992C477.089 34.992 477.089 34.992 477.088 34.992C477.088 34.992 477.088 34.992 477.087 34.992C477.087 34.992 477.086 34.992 477.086 34.992C477.086 34.992 477.085 34.992 477.085 34.992C477.085 34.992 477.084 34.992 477.084 34.992C477.083 34.992 477.083 34.992 477.083 34.992C477.082 34.992 477.082 34.992 477.082 34.992C477.081 34.992 477.081 34.992 477.08 34.992C477.08 34.992 477.08 34.992 477.079 34.992C477.079 34.992 477.079 34.992 477.078 34.992C477.078 34.992 477.077 34.992 477.077 34.992C477.077 34.992 477.076 34.992 477.076 34.992C477.076 34.992 477.075 34.992 477.075 34.992C477.074 34.992 477.074 34.992 477.074 34.992C477.073 34.992 477.073 34.992 477.073 34.992C477.072 34.992 477.072 34.992 477.071 34.992C477.071 34.992 477.071 34.992 477.07 34.992C477.07 34.992 477.07 34.992 477.069 34.992C477.069 34.992 477.068 34.992 477.068 34.992C477.068 34.992 477.067 34.992 477.067 34.992C477.067 34.992 477.066 34.992 477.066 34.992C477.065 34.992 477.065 34.992 477.065 34.992C477.064 34.992 477.064 34.992 477.064 34.992C477.063 34.992 477.063 34.992 477.062 34.992C477.062 34.992 477.062 34.992 477.061 34.992C477.061 34.992 477.061 34.992 477.06 34.992C477.06 34.992 477.059 34.992 477.059 34.992C477.059 34.992 477.058 34.992 477.058 34.992C477.058 34.992 477.057 34.992 477.057 34.992C477.056 34.992 477.056 34.992 477.056 34.992C477.055 34.992 477.055 34.992 477.055 34.992C477.054 34.992 477.054 34.992 477.053 34.992C477.053 34.992 477.053 34.992 477.052 34.992C477.052 34.992 477.052 34.992 477.051 34.992C477.051 34.992 477.05 34.992 477.05 34.992C477.05 34.992 477.049 34.992 477.049 34.992C477.049 34.992 477.048 34.992 477.048 34.992C477.047 34.992 477.047 34.992 477.047 34.992C477.046 34.992 477.046 34.992 477.046 34.992C477.045 34.992 477.045 34.992 477.044 34.992C477.044 34.992 477.044 34.992 477.043 34.992C477.043 34.992 477.043 34.992 477.042 34.992C477.042 34.992 477.041 34.992 477.041 34.992C477.041 34.992 477.04 34.992 477.04 34.992C477.04 34.992 477.039 34.992 477.039 34.992C477.038 34.992 477.038 34.992 477.038 34.992C477.037 34.992 477.037 34.992 477.037 34.992C477.036 34.992 477.036 34.992 477.035 34.992C477.035 34.992 477.035 34.992 477.034 34.992C477.034 34.992 477.034 34.992 477.033 34.992C477.033 34.992 477.032 34.992 477.032 34.992C477.032 34.992 477.031 34.992 477.031 34.992C477.031 34.992 477.03 34.992 477.03 34.992C477.029 34.992 477.029 34.992 477.029 34.992C477.028 34.992 477.028 34.992 477.028 34.992C477.027 34.992 477.027 34.992 477.026 34.992C477.026 34.992 477.026 34.992 477.025 34.992C477.025 34.992 477.025 34.992 477.024 34.992C477.024 34.992 477.023 34.992 477.023 34.992C477.023 34.992 477.022 34.992 477.022 34.992C477.022 34.992 477.021 34.992 477.021 34.992C477.02 34.992 477.02 34.992 477.02 34.992C477.019 34.992 477.019 34.992 477.019 34.992C477.018 34.992 477.018 34.992 477.017 34.992C477.017 34.992 477.017 34.992 477.016 34.992C477.016 34.992 477.016 34.992 477.015 34.992C477.015 34.992 477.014 34.992 477.014 34.992C477.014 34.992 477.013 34.992 477.013 34.992C477.013 34.992 477.012 34.992 477.012 34.992C477.011 34.992 477.011 34.992 477.011 34.992C477.01 34.992 477.01 34.992 477.01 34.992C477.009 34.992 477.009 34.992 477.008 34.992C477.008 34.992 477.008 34.992 477.007 34.992C477.007 34.992 477.007 34.992 477.006 34.992C477.006 34.992 477.005 34.992 477.005 34.992C477.005 34.992 477.004 34.992 477.004 34.992C477.004 34.992 477.003 34.992 477.003 34.992C477.002 34.992 477.002 34.992 477.002 34.992C477.001 34.992 477.001 34.992 477.001 34.992C477 34.992 477 34.992 476.999 34.992C476.999 34.992 476.999 34.992 476.998 34.992C476.998 34.992 476.998 34.992 476.997 34.992C476.997 34.992 476.996 34.992 476.996 34.992C476.996 34.992 476.995 34.992 476.995 34.992C476.995 34.992 476.994 34.992 476.994 34.992C476.993 34.992 476.993 34.992 476.993 34.992C476.992 34.992 476.992 34.992 476.992 34.992C476.991 34.992 476.991 34.992 476.99 34.992C476.99 34.992 476.99 34.992 476.989 34.992C476.989 34.992 476.989 34.992 476.988 34.992C476.988 34.992 476.987 34.992 476.987 34.992C476.987 34.992 476.986 34.992 476.986 34.992C476.986 34.992 476.985 34.992 476.985 34.992C476.984 34.992 476.984 34.992 476.984 34.992C476.983 34.992 476.983 34.992 476.983 34.992C476.982 34.992 476.982 34.992 476.981 34.992C476.981 34.992 476.981 34.992 476.98 34.992C476.98 34.992 476.98 34.992 476.979 34.992C476.979 34.992 476.978 34.992 476.978 34.992C476.978 34.992 476.977 34.992 476.977 34.992C476.977 34.992 476.976 34.992 476.976 34.992C476.975 34.992 476.975 34.992 476.975 34.992C476.974 34.992 476.974 34.992 476.974 34.992C476.973 34.992 476.973 34.992 476.972 34.992C476.972 34.992 476.972 34.992 476.971 34.992C476.971 34.992 476.971 34.992 476.97 34.992C476.97 34.992 476.969 34.992 476.969 34.992C476.969 34.992 476.968 34.992 476.968 34.992C476.968 34.992 476.967 34.992 476.967 34.992C476.966 34.992 476.966 34.992 476.966 34.992C476.965 34.992 476.965 34.992 476.965 34.992C476.964 34.992 476.964 34.992 476.963 34.992C476.963 34.992 476.963 34.992 476.962 34.992V38.992ZM477.748 38.981C479.79 38.766 481.736 38.2266 483.574 37.3616L481.871 33.7424C480.445 34.4134 478.934 34.834 477.329 35.003L477.748 38.981ZM483.56 37.3679C490.485 34.1718 495.282 27.1415 495.282 19.04H491.282C491.282 25.5305 487.439 31.1722 481.884 33.7361L483.56 37.3679ZM495.282 19.04C495.282 13.4934 493.039 8.49039 489.437 4.78242L486.568 7.56957C489.494 10.5816 491.282 14.6026 491.282 19.04H495.282ZM489.416 4.76174L489.32 4.66574L486.492 7.49425L486.588 7.59025L489.416 4.76174ZM476.836 22.8191C476.363 23.0557 475.808 23.184 475.234 23.184V27.184C476.389 27.184 477.562 26.9283 478.625 26.3969L476.836 22.8191ZM475.234 23.184H444.802V27.184H475.234V23.184ZM446.802 25.184V12.8H442.802V25.184H446.802ZM444.802 14.8H475.234V10.8H444.802V14.8ZM475.234 14.8C476.696 14.8 477.653 15.4549 478.14 15.9422L480.968 13.1138C479.92 12.0651 477.997 10.8 475.234 10.8V14.8ZM478.14 15.9422C478.594 16.3962 479.378 17.4535 479.378 18.944H483.378C483.378 16.0185 481.858 14.0038 480.968 13.1138L478.14 15.9422ZM479.378 18.944C479.378 20.5507 478.408 22.0365 476.933 22.6779L478.528 26.3461C481.469 25.0675 483.378 22.1373 483.378 18.944H479.378ZM475.73 24.512V24.608H479.73V24.512H475.73Z" fill="current" stroke="current"/>
</svg>
